<?xml version="1.0" encoding="UTF-8"?>
<svg version="1.1" xmlns="http://www.w3.org/2000/svg" width="512" height="512">
<path d="M0 0 C3.58598889 2.54054385 6.15992797 5.04327701 8.4921875 8.765625 C8.90210938 9.38695312 9.31203125 10.00828125 9.734375 10.6484375 C14.77119657 19.78418973 13.55462838 30.41996216 10.86865234 40.07299805 C8.79039466 46.96853906 6.49909112 53.79137043 4.17984772 60.60858917 C3.00909691 64.06815762 1.86660078 67.5370263 0.72216797 71.00537109 C-0.90781838 75.93893774 -2.54465667 80.8701038 -4.19173622 85.7979908 C-7.70755289 96.31999527 -11.09599882 106.88071361 -14.45068359 117.45513916 C-16.04304823 122.46985742 -17.64606422 127.48116016 -19.25 132.4921875 C-19.58102722 133.52644867 -19.91205444 134.56070984 -20.25311279 135.62631226 C-25.20790384 151.09012833 -30.2218913 166.53489942 -35.22603607 181.98279572 C-41.35380513 200.89969435 -47.4618297 219.8223844 -53.5078125 238.765625 C-60.0263448 259.18945513 -66.61952476 279.58864979 -73.22644043 299.98400879 C-79.66987086 319.87526528 -86.08592031 339.77466852 -92.44226074 359.69396973 C-96.58715985 372.68009964 -100.76046416 385.65675666 -104.9609375 398.625 C-105.19784868 399.35652472 -105.43475986 400.08804943 -105.67885017 400.84174156 C-107.84982435 407.54482259 -110.02147686 414.24768298 -112.19674683 420.94937134 C-118.89056108 441.56088418 -118.89056108 441.56088418 -125.40234375 462.23046875 C-125.68373199 463.13554169 -125.96512024 464.04061462 -126.2550354 464.97311401 C-127.49081775 468.95232482 -128.71647181 472.93403855 -129.92089844 476.92285156 C-133.75046771 489.44369871 -138.03860051 498.63122245 -149.3046875 505.9296875 C-156.4923627 509.33270187 -167.01874003 509.0756656 -174.51953125 506.88671875 C-184.90374395 502.06831684 -189.97894006 494.42045704 -193.9270153 484.03093433 C-194.37132972 482.72850879 -194.80944361 481.42395567 -195.24215698 480.11763 C-195.4879154 479.39153367 -195.73367382 478.66543733 -195.98687947 477.91733807 C-196.80012852 475.50966215 -197.60493316 473.09925446 -198.40966797 470.6887207 C-198.9943148 468.95167766 -199.57943587 467.21479416 -200.16499329 465.47805786 C-201.74702785 460.77993474 -203.32121915 456.07922158 -204.89306784 451.37768197 C-205.87554865 448.43976562 -206.85950618 445.50234796 -207.84393692 442.56508446 C-211.27825914 432.31700728 -214.70542594 422.06656469 -218.12695312 411.81420898 C-221.31699405 402.25622135 -224.52397003 392.70402788 -227.73851287 383.15425617 C-230.49923996 374.94989758 -233.24732246 366.74137404 -235.98572648 358.52953786 C-237.62093291 353.62681071 -239.2614211 348.7260046 -240.91497421 343.82943153 C-242.46766104 339.23032532 -244.00461589 334.62626281 -245.52951622 330.01787186 C-246.09219857 328.32645841 -246.66054753 326.63691817 -247.23490715 324.94943428 C-248.01706113 322.64861168 -248.77864688 320.34195786 -249.53536987 318.03266907 C-249.76803303 317.36399238 -250.00069618 316.6953157 -250.24040973 316.00637609 C-251.23027778 312.91560222 -251.59782732 311.08229561 -250.700243 307.92460918 C-249.60767816 305.94643921 -248.50152383 304.0936402 -247.1796875 302.26171875 C-246.71723633 301.61444824 -246.25478516 300.96717773 -245.77832031 300.30029297 C-245.02566895 299.26219482 -245.02566895 299.26219482 -244.2578125 298.203125 C-243.16357739 296.673524 -242.06984749 295.14356149 -240.9765625 293.61328125 C-240.40550781 292.81680176 -239.83445312 292.02032227 -239.24609375 291.19970703 C-236.38919033 287.19923974 -233.57364672 283.17005653 -230.7578125 279.140625 C-230.17870117 278.31296631 -229.59958984 277.48530762 -229.00292969 276.63256836 C-223.81272812 269.21142865 -218.64317967 261.77596171 -213.47412109 254.34008789 C-207.41016961 245.61922023 -201.32139771 236.91590075 -195.22558594 228.21728516 C-192.3181916 224.06776072 -189.41313249 219.91660194 -186.5078125 215.765625 C-185.34115675 214.09895069 -184.17449009 212.43228402 -183.0078125 210.765625 C-182.1415625 209.528125 -182.1415625 209.528125 -181.2578125 208.265625 C-176.0078125 200.765625 -176.0078125 200.765625 -174.25756836 198.26538086 C-173.09158439 196.59961975 -171.9257314 194.93376696 -170.76000977 193.26782227 C-167.83396797 189.08653673 -164.90562766 184.90689698 -161.97265625 180.73046875 C-154.06651687 169.46591134 -146.25185128 158.14223702 -138.5078125 146.765625 C-146.7479338 152.15854992 -154.82623465 157.76355095 -162.88452148 163.42285156 C-168.01176281 167.02229062 -173.15210413 170.60027808 -178.3203125 174.140625 C-187.75422393 180.60649665 -197.13496124 187.14857342 -206.52001953 193.68505859 C-212.30029283 197.71018436 -218.08324071 201.73146615 -223.86572266 205.75341797 C-228.74603764 209.1480942 -233.62563275 212.54379684 -238.50390625 215.94140625 C-247.50931369 222.21212179 -256.51803747 228.47666492 -265.57275391 234.67602539 C-269.24696417 237.19630843 -272.90301058 239.74068963 -276.546875 242.3046875 C-277.42190674 242.92005371 -278.29693848 243.53541992 -279.19848633 244.16943359 C-280.88218598 245.35503158 -282.5644427 246.54268288 -284.24487305 247.73291016 C-285.78988609 248.82091174 -287.34751675 249.89128619 -288.91905499 250.94060993 C-291.52749396 252.705357 -291.52749396 252.705357 -293.77093983 254.78728771 C-297.96872174 258.18913043 -300.85695099 259.89811746 -306.35620689 259.45676613 C-311.07369773 258.38954112 -315.60020134 256.7604972 -320.15307617 255.14770508 C-321.91374544 254.5632657 -323.67580983 253.98301515 -325.43913269 253.40663147 C-330.21045702 251.83345312 -334.95970332 250.20146978 -339.70692992 248.55722642 C-344.68633841 246.84299276 -349.68315519 245.18104794 -354.67805481 243.51261902 C-363.06394076 240.70319042 -371.43702383 237.8581527 -379.80249023 234.98852539 C-390.52456089 231.31069597 -401.26535623 227.69118339 -412.01343822 224.09018421 C-421.27144957 220.98800015 -430.52073016 217.86008372 -439.76850724 214.72754455 C-442.73253035 213.72460219 -445.69765757 212.7249777 -448.66292381 211.72571754 C-453.33104232 210.15068949 -457.99343034 208.55969054 -462.65191841 206.95641136 C-464.35776238 206.37173726 -466.06529551 205.79196381 -467.77463531 205.21759033 C-480.54869877 200.91929768 -491.73618751 196.12753056 -498.15234375 183.5390625 C-499.73152929 179.68421703 -499.97033989 175.95922017 -499.8828125 171.828125 C-499.87048584 171.12155762 -499.85815918 170.41499023 -499.84545898 169.68701172 C-499.53482401 160.05176063 -496.64005673 155.42255527 -490.4453125 148.16015625 C-481.42607474 140.80803824 -468.95644587 138.17814436 -458.02905273 134.75219727 C-453.64590054 133.37776427 -449.2676789 131.9879172 -444.88909912 130.59899902 C-442.5184373 129.84705762 -440.14754147 129.09585363 -437.77642822 128.34533691 C-424.55631164 124.157545 -411.36346738 119.88612708 -398.17056274 115.61355591 C-391.2069418 113.35843175 -384.24229695 111.10647447 -377.27734375 108.85546875 C-376.59744825 108.63572325 -375.91755276 108.41597775 -375.21705437 108.18957329 C-362.38483948 104.04285949 -349.5421596 99.92926654 -336.6953125 95.828125 C-316.20939987 89.28819616 -295.74786435 82.67429907 -275.29003525 76.04719925 C-256.3733439 69.91947989 -237.45080675 63.81167953 -218.5078125 57.765625 C-198.9501745 51.5229809 -179.41385502 45.21584842 -159.8828125 38.890625 C-126.41750579 28.05356998 -126.41750579 28.05356998 -110.265625 22.8515625 C-108.46192947 22.27063843 -108.46192947 22.27063843 -106.62179565 21.67797852 C-100.79768544 19.80339518 -94.97217577 17.93333031 -89.14404297 16.07128906 C-86.91109275 15.3575472 -84.67818207 14.64368161 -82.4453125 13.9296875 C-81.36307404 13.58365479 -80.28083557 13.23762207 -79.165802 12.88110352 C-72.74155078 10.82093366 -66.33281268 8.7190803 -59.93469238 6.5791626 C-55.90659347 5.2339105 -51.87297129 3.90572061 -47.83862305 2.5793457 C-45.99215298 1.96704062 -44.14839268 1.34648412 -42.30786133 0.71655273 C-28.05452467 -4.15934247 -13.95192842 -8.09136228 0 0 Z " fill="#000000" transform="translate(499.5078125,4.234375)"/>
</svg>
